
<!DOCTYPE svg PUBLIC "-//W3C//DTD SVG 20010904//EN"
 "http://www.w3.org/TR/2001/REC-SVG-20010904/DTD/svg10.dtd">
<svg version="1.0" xmlns="http://www.w3.org/2000/svg"
 width="20.000000pt" height="20.000000pt" viewBox="0 0 1024.000000 1024.000000"
 preserveAspectRatio="xMidYMid meet">


<g transform="translate(0.000000,1024.000000) scale(0.100000,-0.100000)"
fill="#f2f2f2" stroke="none">
<path d="M4776 10230 c-1697 -118 -3221 -1064 -4080 -2533 -818 -1400 -921
-3119 -274 -4612 515 -1189 1486 -2159 2670 -2666 1082 -463 2269 -544 3398
-233 1480 409 2718 1487 3328 2899 364 842 495 1757 382 2670 -194 1562 -1097
2944 -2460 3765 -146 88 -499 266 -655 330 -469 192 -932 308 -1455 365 -174
19 -671 27 -854 15z m800 -525 c1459 -150 2745 -965 3496 -2215 348 -580 558
-1213 634 -1915 24 -219 24 -689 1 -905 -73 -670 -263 -1268 -582 -1830 -76
-134 -285 -445 -381 -565 -721 -908 -1719 -1503 -2839 -1695 -295 -50 -460
-63 -785 -63 -318 0 -477 12 -760 59 -807 133 -1556 478 -2200 1013 -148 123
-449 424 -571 571 -535 647 -872 1373 -1009 2175 -50 295 -63 460 -63 785 0
325 13 490 63 785 164 960 629 1839 1331 2520 809 783 1854 1238 2984 1299
137 7 533 -4 681 -19z"/>
<path d="M5045 8851 c-103 -28 -184 -92 -259 -204 -99 -148 -140 -256 -287
-742 -152 -501 -235 -688 -364 -820 -104 -107 -214 -145 -418 -145 -174 0
-318 25 -787 139 -345 83 -456 101 -622 102 -185 1 -297 -37 -381 -131 -111
-124 -117 -286 -16 -480 74 -143 179 -270 538 -651 330 -351 451 -527 488
-717 14 -72 14 -86 0 -158 -29 -143 -124 -304 -296 -504 -40 -46 -169 -186
-286 -310 -117 -124 -241 -259 -275 -300 -221 -266 -293 -473 -220 -638 78
-176 265 -251 555 -222 133 13 278 42 582 114 459 110 653 138 819 117 202
-24 310 -99 426 -295 81 -137 138 -293 277 -762 118 -397 182 -553 282 -686
92 -124 185 -173 319 -172 141 1 237 61 335 209 98 147 142 265 330 885 161
532 309 751 545 804 41 10 116 16 186 16 181 0 320 -24 794 -139 352 -85 457
-102 630 -102 178 1 288 38 369 126 59 64 83 124 89 216 5 91 -12 160 -69 269
-74 143 -179 270 -538 651 -327 347 -448 523 -487 709 -24 116 -6 208 70 355
77 149 166 259 507 620 224 237 301 326 380 438 64 90 123 214 139 292 32 155
-40 310 -177 382 -87 46 -151 58 -298 56 -161 -1 -263 -19 -683 -117 -177 -42
-375 -85 -440 -95 -391 -64 -587 -19 -734 169 -122 157 -184 313 -359 905
-148 502 -262 708 -435 790 -61 29 -172 41 -229 26z"/>
</g>
</svg>
